<svg width="40" height="41" viewBox="0 0 40 41" fill="none" xmlns="http://www.w3.org/2000/svg">
<rect y="0.5" width="40" height="40" rx="20" fill="white"/>
<path d="M26 16.5C26 14.9087 25.3679 13.3826 24.2426 12.2574C23.1174 11.1321 21.5913 10.5 20 10.5C18.4087 10.5 16.8826 11.1321 15.7574 12.2574C14.6321 13.3826 14 14.9087 14 16.5C14 23.5 11 25.5 11 25.5H29C29 25.5 26 23.5 26 16.5Z" stroke="#272727" stroke-width="2" stroke-linecap="round" stroke-linejoin="round"/>
<path d="M21.73 29.5C21.5542 29.8031 21.3019 30.0547 20.9982 30.2295C20.6946 30.4044 20.3504 30.4965 20 30.4965C19.6496 30.4965 19.3054 30.4044 19.0018 30.2295C18.6982 30.0547 18.4458 29.8031 18.27 29.5" stroke="#272727" stroke-width="2" stroke-linecap="round" stroke-linejoin="round"/>
<circle cx="27" cy="8.5" r="3" fill="#9E6EFE"/>
</svg>
