<svg width="560" height="229" viewBox="0 0 560 229" fill="none" xmlns="http://www.w3.org/2000/svg">
<path d="M1.968 15.52C2.992 14.6347 3.79733 13.9093 4.384 13.344C4.98133 12.768 5.47733 12.1707 5.872 11.552C6.26667 10.9333 6.464 10.3147 6.464 9.696C6.464 9.056 6.30933 8.55467 6 8.192C5.70133 7.82933 5.22667 7.648 4.576 7.648C3.94667 7.648 3.456 7.85067 3.104 8.256C2.76267 8.65067 2.58133 9.184 2.56 9.856H0.8C0.832 8.64 1.19467 7.712 1.888 7.072C2.592 6.42133 3.48267 6.096 4.56 6.096C5.72267 6.096 6.62933 6.416 7.28 7.056C7.94133 7.696 8.272 8.54933 8.272 9.616C8.272 10.384 8.07467 11.1253 7.68 11.84C7.296 12.544 6.832 13.1787 6.288 13.744C5.75467 14.2987 5.072 14.944 4.24 15.68L3.52 16.32H8.592V17.84H0.816V16.512L1.968 15.52ZM9.87438 12.016C9.87438 10.1707 10.1837 8.73067 10.8024 7.696C11.4317 6.65067 12.509 6.128 14.0344 6.128C15.5597 6.128 16.6317 6.65067 17.2504 7.696C17.8797 8.73067 18.1944 10.1707 18.1944 12.016C18.1944 13.8827 17.8797 15.344 17.2504 16.4C16.6317 17.4453 15.5597 17.968 14.0344 17.968C12.509 17.968 11.4317 17.4453 10.8024 16.4C10.1837 15.344 9.87438 13.8827 9.87438 12.016ZM16.4024 12.016C16.4024 11.152 16.3437 10.4213 16.2264 9.824C16.1197 9.22667 15.8957 8.74133 15.5544 8.368C15.213 7.984 14.7064 7.792 14.0344 7.792C13.3624 7.792 12.8557 7.984 12.5144 8.368C12.173 8.74133 11.9437 9.22667 11.8264 9.824C11.7197 10.4213 11.6664 11.152 11.6664 12.016C11.6664 12.912 11.7197 13.664 11.8264 14.272C11.933 14.88 12.157 15.3707 12.4984 15.744C12.8504 16.1173 13.3624 16.304 14.0344 16.304C14.7064 16.304 15.213 16.1173 15.5544 15.744C15.9064 15.3707 16.1357 14.88 16.2424 14.272C16.349 13.664 16.4024 12.912 16.4024 12.016ZM19.8044 12.016C19.8044 10.1707 20.1137 8.73067 20.7324 7.696C21.3617 6.65067 22.439 6.128 23.9644 6.128C25.4897 6.128 26.5617 6.65067 27.1804 7.696C27.8097 8.73067 28.1244 10.1707 28.1244 12.016C28.1244 13.8827 27.8097 15.344 27.1804 16.4C26.5617 17.4453 25.4897 17.968 23.9644 17.968C22.439 17.968 21.3617 17.4453 20.7324 16.4C20.1137 15.344 19.8044 13.8827 19.8044 12.016ZM26.3324 12.016C26.3324 11.152 26.2737 10.4213 26.1564 9.824C26.0497 9.22667 25.8257 8.74133 25.4844 8.368C25.143 7.984 24.6364 7.792 23.9644 7.792C23.2924 7.792 22.7857 7.984 22.4444 8.368C22.103 8.74133 21.8737 9.22667 21.7564 9.824C21.6497 10.4213 21.5964 11.152 21.5964 12.016C21.5964 12.912 21.6497 13.664 21.7564 14.272C21.863 14.88 22.087 15.3707 22.4284 15.744C22.7804 16.1173 23.2924 16.304 23.9644 16.304C24.6364 16.304 25.143 16.1173 25.4844 15.744C25.8364 15.3707 26.0657 14.88 26.1724 14.272C26.279 13.664 26.3324 12.912 26.3324 12.016ZM29.7344 12.016C29.7344 10.1707 30.0437 8.73067 30.6624 7.696C31.2917 6.65067 32.369 6.128 33.8944 6.128C35.4197 6.128 36.4917 6.65067 37.1104 7.696C37.7397 8.73067 38.0544 10.1707 38.0544 12.016C38.0544 13.8827 37.7397 15.344 37.1104 16.4C36.4917 17.4453 35.4197 17.968 33.8944 17.968C32.369 17.968 31.2917 17.4453 30.6624 16.4C30.0437 15.344 29.7344 13.8827 29.7344 12.016ZM36.2624 12.016C36.2624 11.152 36.2037 10.4213 36.0864 9.824C35.9797 9.22667 35.7557 8.74133 35.4144 8.368C35.073 7.984 34.5664 7.792 33.8944 7.792C33.2224 7.792 32.7157 7.984 32.3744 8.368C32.033 8.74133 31.8037 9.22667 31.6864 9.824C31.5797 10.4213 31.5264 11.152 31.5264 12.016C31.5264 12.912 31.5797 13.664 31.6864 14.272C31.793 14.88 32.017 15.3707 32.3584 15.744C32.7104 16.1173 33.2224 16.304 33.8944 16.304C34.5664 16.304 35.073 16.1173 35.4144 15.744C35.7664 15.3707 35.9957 14.88 36.1024 14.272C36.209 13.664 36.2624 12.912 36.2624 12.016Z" fill="#6A6969"/>
<path d="M0.72 50V48.336H4.048V60H2.208V50H0.72ZM6.23375 54.016C6.23375 52.1707 6.54308 50.7307 7.16175 49.696C7.79108 48.6507 8.86842 48.128 10.3938 48.128C11.9191 48.128 12.9911 48.6507 13.6098 49.696C14.2391 50.7307 14.5538 52.1707 14.5538 54.016C14.5538 55.8827 14.2391 57.344 13.6098 58.4C12.9911 59.4453 11.9191 59.968 10.3938 59.968C8.86842 59.968 7.79108 59.4453 7.16175 58.4C6.54308 57.344 6.23375 55.8827 6.23375 54.016ZM12.7618 54.016C12.7618 53.152 12.7031 52.4213 12.5858 51.824C12.4791 51.2267 12.2551 50.7413 11.9138 50.368C11.5724 49.984 11.0658 49.792 10.3938 49.792C9.72175 49.792 9.21508 49.984 8.87375 50.368C8.53242 50.7413 8.30308 51.2267 8.18575 51.824C8.07908 52.4213 8.02575 53.152 8.02575 54.016C8.02575 54.912 8.07908 55.664 8.18575 56.272C8.29242 56.88 8.51642 57.3707 8.85775 57.744C9.20975 58.1173 9.72175 58.304 10.3938 58.304C11.0658 58.304 11.5724 58.1173 11.9138 57.744C12.2658 57.3707 12.4951 56.88 12.6018 56.272C12.7084 55.664 12.7618 54.912 12.7618 54.016ZM16.1637 54.016C16.1637 52.1707 16.4731 50.7307 17.0917 49.696C17.7211 48.6507 18.7984 48.128 20.3238 48.128C21.8491 48.128 22.9211 48.6507 23.5398 49.696C24.1691 50.7307 24.4838 52.1707 24.4838 54.016C24.4838 55.8827 24.1691 57.344 23.5398 58.4C22.9211 59.4453 21.8491 59.968 20.3238 59.968C18.7984 59.968 17.7211 59.4453 17.0917 58.4C16.4731 57.344 16.1637 55.8827 16.1637 54.016ZM22.6918 54.016C22.6918 53.152 22.6331 52.4213 22.5157 51.824C22.4091 51.2267 22.1851 50.7413 21.8438 50.368C21.5024 49.984 20.9957 49.792 20.3238 49.792C19.6517 49.792 19.1451 49.984 18.8037 50.368C18.4624 50.7413 18.2331 51.2267 18.1157 51.824C18.0091 52.4213 17.9557 53.152 17.9557 54.016C17.9557 54.912 18.0091 55.664 18.1157 56.272C18.2224 56.88 18.4464 57.3707 18.7877 57.744C19.1397 58.1173 19.6517 58.304 20.3238 58.304C20.9957 58.304 21.5024 58.1173 21.8438 57.744C22.1957 57.3707 22.4251 56.88 22.5318 56.272C22.6384 55.664 22.6918 54.912 22.6918 54.016ZM26.0938 54.016C26.0938 52.1707 26.4031 50.7307 27.0218 49.696C27.6511 48.6507 28.7284 48.128 30.2538 48.128C31.7791 48.128 32.8511 48.6507 33.4698 49.696C34.0991 50.7307 34.4138 52.1707 34.4138 54.016C34.4138 55.8827 34.0991 57.344 33.4698 58.4C32.8511 59.4453 31.7791 59.968 30.2538 59.968C28.7284 59.968 27.6511 59.4453 27.0218 58.4C26.4031 57.344 26.0938 55.8827 26.0938 54.016ZM32.6218 54.016C32.6218 53.152 32.5631 52.4213 32.4458 51.824C32.3391 51.2267 32.1151 50.7413 31.7738 50.368C31.4324 49.984 30.9258 49.792 30.2538 49.792C29.5818 49.792 29.0751 49.984 28.7338 50.368C28.3924 50.7413 28.1631 51.2267 28.0458 51.824C27.9391 52.4213 27.8858 53.152 27.8858 54.016C27.8858 54.912 27.9391 55.664 28.0458 56.272C28.1524 56.88 28.3764 57.3707 28.7178 57.744C29.0698 58.1173 29.5818 58.304 30.2538 58.304C30.9258 58.304 31.4324 58.1173 31.7738 57.744C32.1258 57.3707 32.3551 56.88 32.4618 56.272C32.5684 55.664 32.6218 54.912 32.6218 54.016Z" fill="#6A6969"/>
<path d="M8.48 91.904H3.12V95.088C3.344 94.7893 3.67467 94.5387 4.112 94.336C4.56 94.1333 5.03467 94.032 5.536 94.032C6.432 94.032 7.15733 94.224 7.712 94.608C8.27733 94.992 8.67733 95.4773 8.912 96.064C9.15733 96.6507 9.28 97.2693 9.28 97.92C9.28 98.7093 9.12533 99.4133 8.816 100.032C8.51733 100.64 8.064 101.12 7.456 101.472C6.85867 101.824 6.12267 102 5.248 102C4.08533 102 3.152 101.712 2.448 101.136C1.744 100.56 1.32267 99.7973 1.184 98.848H2.96C3.07733 99.3493 3.33867 99.7493 3.744 100.048C4.14933 100.336 4.656 100.48 5.264 100.48C6.02133 100.48 6.58667 100.251 6.96 99.792C7.344 99.3333 7.536 98.7253 7.536 97.968C7.536 97.2 7.344 96.6133 6.96 96.208C6.576 95.792 6.01067 95.584 5.264 95.584C4.74133 95.584 4.29867 95.7173 3.936 95.984C3.584 96.24 3.328 96.592 3.168 97.04H1.44V90.304H8.48V91.904ZM10.8588 96.016C10.8588 94.1707 11.1681 92.7307 11.7868 91.696C12.4161 90.6507 13.4934 90.128 15.0188 90.128C16.5441 90.128 17.6161 90.6507 18.2348 91.696C18.8641 92.7307 19.1788 94.1707 19.1788 96.016C19.1788 97.8827 18.8641 99.344 18.2348 100.4C17.6161 101.445 16.5441 101.968 15.0188 101.968C13.4934 101.968 12.4161 101.445 11.7868 100.4C11.1681 99.344 10.8588 97.8827 10.8588 96.016ZM17.3868 96.016C17.3868 95.152 17.3281 94.4213 17.2108 93.824C17.1041 93.2267 16.8801 92.7413 16.5388 92.368C16.1974 91.984 15.6908 91.792 15.0188 91.792C14.3468 91.792 13.8401 91.984 13.4988 92.368C13.1574 92.7413 12.9281 93.2267 12.8108 93.824C12.7041 94.4213 12.6508 95.152 12.6508 96.016C12.6508 96.912 12.7041 97.664 12.8108 98.272C12.9174 98.88 13.1414 99.3707 13.4828 99.744C13.8348 100.117 14.3468 100.304 15.0188 100.304C15.6908 100.304 16.1974 100.117 16.5388 99.744C16.8908 99.3707 17.1201 98.88 17.2268 98.272C17.3334 97.664 17.3868 96.912 17.3868 96.016ZM20.7888 96.016C20.7888 94.1707 21.0981 92.7307 21.7168 91.696C22.3461 90.6507 23.4234 90.128 24.9488 90.128C26.4741 90.128 27.5461 90.6507 28.1648 91.696C28.7941 92.7307 29.1088 94.1707 29.1088 96.016C29.1088 97.8827 28.7941 99.344 28.1648 100.4C27.5461 101.445 26.4741 101.968 24.9488 101.968C23.4234 101.968 22.3461 101.445 21.7168 100.4C21.0981 99.344 20.7888 97.8827 20.7888 96.016ZM27.3168 96.016C27.3168 95.152 27.2581 94.4213 27.1408 93.824C27.0341 93.2267 26.8101 92.7413 26.4688 92.368C26.1274 91.984 25.6208 91.792 24.9488 91.792C24.2768 91.792 23.7701 91.984 23.4288 92.368C23.0874 92.7413 22.8581 93.2267 22.7408 93.824C22.6341 94.4213 22.5808 95.152 22.5808 96.016C22.5808 96.912 22.6341 97.664 22.7408 98.272C22.8474 98.88 23.0714 99.3707 23.4128 99.744C23.7648 100.117 24.2768 100.304 24.9488 100.304C25.6208 100.304 26.1274 100.117 26.4688 99.744C26.8208 99.3707 27.0501 98.88 27.1568 98.272C27.2634 97.664 27.3168 96.912 27.3168 96.016Z" fill="#6A6969"/>
<path d="M1.968 141.52C2.992 140.635 3.79733 139.909 4.384 139.344C4.98133 138.768 5.47733 138.171 5.872 137.552C6.26667 136.933 6.464 136.315 6.464 135.696C6.464 135.056 6.30933 134.555 6 134.192C5.70133 133.829 5.22667 133.648 4.576 133.648C3.94667 133.648 3.456 133.851 3.104 134.256C2.76267 134.651 2.58133 135.184 2.56 135.856H0.8C0.832 134.64 1.19467 133.712 1.888 133.072C2.592 132.421 3.48267 132.096 4.56 132.096C5.72267 132.096 6.62933 132.416 7.28 133.056C7.94133 133.696 8.272 134.549 8.272 135.616C8.272 136.384 8.07467 137.125 7.68 137.84C7.296 138.544 6.832 139.179 6.288 139.744C5.75467 140.299 5.072 140.944 4.24 141.68L3.52 142.32H8.592V143.84H0.816V142.512L1.968 141.52ZM17.3944 133.904H12.0344V137.088C12.2584 136.789 12.589 136.539 13.0264 136.336C13.4744 136.133 13.949 136.032 14.4504 136.032C15.3464 136.032 16.0717 136.224 16.6264 136.608C17.1917 136.992 17.5917 137.477 17.8264 138.064C18.0717 138.651 18.1944 139.269 18.1944 139.92C18.1944 140.709 18.0397 141.413 17.7304 142.032C17.4317 142.64 16.9784 143.12 16.3704 143.472C15.773 143.824 15.037 144 14.1624 144C12.9997 144 12.0664 143.712 11.3624 143.136C10.6584 142.56 10.237 141.797 10.0984 140.848H11.8744C11.9917 141.349 12.253 141.749 12.6584 142.048C13.0637 142.336 13.5704 142.48 14.1784 142.48C14.9357 142.48 15.501 142.251 15.8744 141.792C16.2584 141.333 16.4504 140.725 16.4504 139.968C16.4504 139.2 16.2584 138.613 15.8744 138.208C15.4904 137.792 14.925 137.584 14.1784 137.584C13.6557 137.584 13.213 137.717 12.8504 137.984C12.4984 138.24 12.2424 138.592 12.0824 139.04H10.3544V132.304H17.3944V133.904ZM19.7731 138.016C19.7731 136.171 20.0825 134.731 20.7011 133.696C21.3305 132.651 22.4078 132.128 23.9331 132.128C25.4585 132.128 26.5305 132.651 27.1491 133.696C27.7785 134.731 28.0931 136.171 28.0931 138.016C28.0931 139.883 27.7785 141.344 27.1491 142.4C26.5305 143.445 25.4585 143.968 23.9331 143.968C22.4078 143.968 21.3305 143.445 20.7011 142.4C20.0825 141.344 19.7731 139.883 19.7731 138.016ZM26.3011 138.016C26.3011 137.152 26.2425 136.421 26.1251 135.824C26.0185 135.227 25.7945 134.741 25.4531 134.368C25.1118 133.984 24.6051 133.792 23.9331 133.792C23.2611 133.792 22.7545 133.984 22.4131 134.368C22.0718 134.741 21.8425 135.227 21.7251 135.824C21.6185 136.421 21.5651 137.152 21.5651 138.016C21.5651 138.912 21.6185 139.664 21.7251 140.272C21.8318 140.88 22.0558 141.371 22.3971 141.744C22.7491 142.117 23.2611 142.304 23.9331 142.304C24.6051 142.304 25.1118 142.117 25.4531 141.744C25.8051 141.371 26.0345 140.88 26.1411 140.272C26.2478 139.664 26.3011 138.912 26.3011 138.016Z" fill="#6A6969"/>
<path d="M0.96 180.016C0.96 178.171 1.26933 176.731 1.888 175.696C2.51733 174.651 3.59467 174.128 5.12 174.128C6.64533 174.128 7.71733 174.651 8.336 175.696C8.96533 176.731 9.28 178.171 9.28 180.016C9.28 181.883 8.96533 183.344 8.336 184.4C7.71733 185.445 6.64533 185.968 5.12 185.968C3.59467 185.968 2.51733 185.445 1.888 184.4C1.26933 183.344 0.96 181.883 0.96 180.016ZM7.488 180.016C7.488 179.152 7.42933 178.421 7.312 177.824C7.20533 177.227 6.98133 176.741 6.64 176.368C6.29867 175.984 5.792 175.792 5.12 175.792C4.448 175.792 3.94133 175.984 3.6 176.368C3.25867 176.741 3.02933 177.227 2.912 177.824C2.80533 178.421 2.752 179.152 2.752 180.016C2.752 180.912 2.80533 181.664 2.912 182.272C3.01867 182.88 3.24267 183.371 3.584 183.744C3.936 184.117 4.448 184.304 5.12 184.304C5.792 184.304 6.29867 184.117 6.64 183.744C6.992 183.371 7.22133 182.88 7.328 182.272C7.43467 181.664 7.488 180.912 7.488 180.016Z" fill="#6A6969"/>
<rect x="64" y="143" width="42" height="50" rx="6" fill="#9E6EFE" fill-opacity="0.24"/>
<path d="M79.244 211.88V213.368H74.524V216.648H78.204V218.136H74.524V223H72.7V211.88H79.244ZM88.6944 218.376C88.6944 218.707 88.673 219.005 88.6304 219.272H81.8944C81.9477 219.976 82.209 220.541 82.6784 220.968C83.1477 221.395 83.7237 221.608 84.4064 221.608C85.3877 221.608 86.081 221.197 86.4864 220.376H88.4544C88.1877 221.187 87.7024 221.853 86.9984 222.376C86.305 222.888 85.441 223.144 84.4064 223.144C83.5637 223.144 82.8064 222.957 82.1344 222.584C81.473 222.2 80.9504 221.667 80.5664 220.984C80.193 220.291 80.0064 219.491 80.0064 218.584C80.0064 217.677 80.1877 216.883 80.5504 216.2C80.9237 215.507 81.441 214.973 82.1024 214.6C82.7744 214.227 83.5424 214.04 84.4064 214.04C85.2384 214.04 85.9797 214.221 86.6304 214.584C87.281 214.947 87.7877 215.459 88.1504 216.12C88.513 216.771 88.6944 217.523 88.6944 218.376ZM86.7904 217.8C86.7797 217.128 86.5397 216.589 86.0704 216.184C85.601 215.779 85.0197 215.576 84.3264 215.576C83.697 215.576 83.1584 215.779 82.7104 216.184C82.2624 216.579 81.9957 217.117 81.9104 217.8H86.7904ZM93.5774 221.368L96.0734 214.184H98.0094L94.6494 223H92.4734L89.1294 214.184H91.0814L93.5774 221.368Z" fill="#6A6969"/>
<rect x="120.75" y="105" width="42" height="88" rx="6" fill="#9E6EFE" fill-opacity="0.24"/>
<path d="M139.162 211.88V223H137.338V215.384L133.946 223H132.682L129.274 215.384V223H127.45V211.88H129.418L133.322 220.6L137.21 211.88H139.162ZM140.631 218.552C140.631 217.667 140.813 216.883 141.175 216.2C141.549 215.517 142.05 214.989 142.679 214.616C143.319 214.232 144.023 214.04 144.791 214.04C145.485 214.04 146.087 214.179 146.599 214.456C147.122 214.723 147.538 215.059 147.847 215.464V214.184H149.687V223H147.847V221.688C147.538 222.104 147.117 222.451 146.583 222.728C146.05 223.005 145.442 223.144 144.759 223.144C144.002 223.144 143.309 222.952 142.679 222.568C142.05 222.173 141.549 221.629 141.175 220.936C140.813 220.232 140.631 219.437 140.631 218.552ZM147.847 218.584C147.847 217.976 147.719 217.448 147.463 217C147.218 216.552 146.893 216.211 146.487 215.976C146.082 215.741 145.645 215.624 145.175 215.624C144.706 215.624 144.269 215.741 143.863 215.976C143.458 216.2 143.127 216.536 142.871 216.984C142.626 217.421 142.503 217.944 142.503 218.552C142.503 219.16 142.626 219.693 142.871 220.152C143.127 220.611 143.458 220.963 143.863 221.208C144.279 221.443 144.717 221.56 145.175 221.56C145.645 221.56 146.082 221.443 146.487 221.208C146.893 220.973 147.218 220.632 147.463 220.184C147.719 219.725 147.847 219.192 147.847 218.584ZM153.587 215.464C153.854 215.016 154.206 214.669 154.643 214.424C155.091 214.168 155.619 214.04 156.227 214.04V215.928H155.763C155.048 215.928 154.504 216.109 154.131 216.472C153.768 216.835 153.587 217.464 153.587 218.36V223H151.763V214.184H153.587V215.464Z" fill="#6A6969"/>
<rect x="177.5" y="46" width="42" height="147" rx="6" fill="#9E6EFE" fill-opacity="0.24"/>
<path d="M192.404 220.728H187.748L186.948 223H185.044L189.028 211.864H191.14L195.124 223H193.204L192.404 220.728ZM191.892 219.24L190.084 214.072L188.26 219.24H191.892ZM198.36 215.496C198.67 215.069 199.091 214.723 199.624 214.456C200.168 214.179 200.771 214.04 201.432 214.04C202.211 214.04 202.915 214.227 203.544 214.6C204.174 214.973 204.67 215.507 205.032 216.2C205.395 216.883 205.576 217.667 205.576 218.552C205.576 219.437 205.395 220.232 205.032 220.936C204.67 221.629 204.168 222.173 203.528 222.568C202.899 222.952 202.2 223.144 201.432 223.144C200.75 223.144 200.142 223.011 199.608 222.744C199.086 222.477 198.67 222.136 198.36 221.72V223H196.536V211.16H198.36V215.496ZM203.72 218.552C203.72 217.944 203.592 217.421 203.336 216.984C203.091 216.536 202.76 216.2 202.344 215.976C201.939 215.741 201.502 215.624 201.032 215.624C200.574 215.624 200.136 215.741 199.72 215.976C199.315 216.211 198.984 216.552 198.728 217C198.483 217.448 198.36 217.976 198.36 218.584C198.36 219.192 198.483 219.725 198.728 220.184C198.984 220.632 199.315 220.973 199.72 221.208C200.136 221.443 200.574 221.56 201.032 221.56C201.502 221.56 201.939 221.443 202.344 221.208C202.76 220.963 203.091 220.611 203.336 220.152C203.592 219.693 203.72 219.16 203.72 218.552ZM208.884 215.464C209.151 215.016 209.503 214.669 209.94 214.424C210.388 214.168 210.916 214.04 211.524 214.04V215.928H211.06C210.345 215.928 209.801 216.109 209.428 216.472C209.065 216.835 208.884 217.464 208.884 218.36V223H207.06V214.184H208.884V215.464Z" fill="#6A6969"/>
<rect x="234.25" y="76" width="42" height="117" rx="6" fill="#9E6EFE" fill-opacity="0.24"/>
<path d="M253.662 211.88V223H251.838V215.384L248.446 223H247.182L243.774 215.384V223H241.95V211.88H243.918L247.822 220.6L251.71 211.88H253.662ZM255.131 218.552C255.131 217.667 255.313 216.883 255.675 216.2C256.049 215.517 256.55 214.989 257.179 214.616C257.819 214.232 258.523 214.04 259.291 214.04C259.985 214.04 260.587 214.179 261.099 214.456C261.622 214.723 262.038 215.059 262.347 215.464V214.184H264.187V223H262.347V221.688C262.038 222.104 261.617 222.451 261.083 222.728C260.55 223.005 259.942 223.144 259.259 223.144C258.502 223.144 257.809 222.952 257.179 222.568C256.55 222.173 256.049 221.629 255.675 220.936C255.313 220.232 255.131 219.437 255.131 218.552ZM262.347 218.584C262.347 217.976 262.219 217.448 261.963 217C261.718 216.552 261.393 216.211 260.987 215.976C260.582 215.741 260.145 215.624 259.675 215.624C259.206 215.624 258.769 215.741 258.363 215.976C257.958 216.2 257.627 216.536 257.371 216.984C257.126 217.421 257.003 217.944 257.003 218.552C257.003 219.16 257.126 219.693 257.371 220.152C257.627 220.611 257.958 220.963 258.363 221.208C258.779 221.443 259.217 221.56 259.675 221.56C260.145 221.56 260.582 221.443 260.987 221.208C261.393 220.973 261.718 220.632 261.963 220.184C262.219 219.725 262.347 219.192 262.347 218.584ZM267.191 213.016C266.86 213.016 266.583 212.904 266.359 212.68C266.135 212.456 266.023 212.179 266.023 211.848C266.023 211.517 266.135 211.24 266.359 211.016C266.583 210.792 266.86 210.68 267.191 210.68C267.511 210.68 267.783 210.792 268.007 211.016C268.231 211.24 268.343 211.517 268.343 211.848C268.343 212.179 268.231 212.456 268.007 212.68C267.783 212.904 267.511 213.016 267.191 213.016ZM268.087 214.184V223H266.263V214.184H268.087Z" fill="#6A6969"/>
<rect x="291" y="24" width="42" height="169" rx="6" fill="#9E6EFE" fill-opacity="0.24"/>
<path d="M304.264 211.88V219.896C304.264 220.888 303.96 221.672 303.352 222.248C302.755 222.824 301.965 223.112 300.984 223.112C300.003 223.112 299.208 222.824 298.6 222.248C298.003 221.672 297.704 220.888 297.704 219.896H299.544C299.555 220.387 299.677 220.776 299.912 221.064C300.157 221.352 300.515 221.496 300.984 221.496C301.453 221.496 301.811 221.352 302.056 221.064C302.301 220.765 302.424 220.376 302.424 219.896V211.88H304.264ZM314.895 214.184V223H313.071V221.96C312.783 222.323 312.405 222.611 311.935 222.824C311.477 223.027 310.986 223.128 310.463 223.128C309.77 223.128 309.146 222.984 308.591 222.696C308.047 222.408 307.615 221.981 307.295 221.416C306.986 220.851 306.831 220.168 306.831 219.368V214.184H308.639V219.096C308.639 219.885 308.837 220.493 309.231 220.92C309.626 221.336 310.165 221.544 310.847 221.544C311.53 221.544 312.069 221.336 312.463 220.92C312.869 220.493 313.071 219.885 313.071 219.096V214.184H314.895ZM321.43 214.04C322.123 214.04 322.742 214.184 323.286 214.472C323.841 214.76 324.273 215.187 324.582 215.752C324.891 216.317 325.046 217 325.046 217.8V223H323.238V218.072C323.238 217.283 323.041 216.68 322.646 216.264C322.251 215.837 321.713 215.624 321.03 215.624C320.347 215.624 319.803 215.837 319.398 216.264C319.003 216.68 318.806 217.283 318.806 218.072V223H316.982V214.184H318.806V215.192C319.105 214.829 319.483 214.547 319.942 214.344C320.411 214.141 320.907 214.04 321.43 214.04Z" fill="#6A6969"/>
<rect x="347.75" width="42" height="193" rx="6" fill="#9E6EFE" fill-opacity="0.24"/>
<path d="M364.014 211.88V219.896C364.014 220.888 363.71 221.672 363.102 222.248C362.505 222.824 361.715 223.112 360.734 223.112C359.753 223.112 358.958 222.824 358.35 222.248C357.753 221.672 357.454 220.888 357.454 219.896H359.294C359.305 220.387 359.427 220.776 359.662 221.064C359.907 221.352 360.265 221.496 360.734 221.496C361.203 221.496 361.561 221.352 361.806 221.064C362.051 220.765 362.174 220.376 362.174 219.896V211.88H364.014ZM374.645 214.184V223H372.821V221.96C372.533 222.323 372.155 222.611 371.685 222.824C371.227 223.027 370.736 223.128 370.213 223.128C369.52 223.128 368.896 222.984 368.341 222.696C367.797 222.408 367.365 221.981 367.045 221.416C366.736 220.851 366.581 220.168 366.581 219.368V214.184H368.389V219.096C368.389 219.885 368.587 220.493 368.981 220.92C369.376 221.336 369.915 221.544 370.597 221.544C371.28 221.544 371.819 221.336 372.213 220.92C372.619 220.493 372.821 219.885 372.821 219.096V214.184H374.645ZM378.556 211.16V223H376.732V211.16H378.556Z" fill="#6A6969"/>
<rect x="404.5" y="105" width="42" height="88" rx="6" fill="#9E6EFE" fill-opacity="0.24"/>
<path d="M422.404 220.728H417.748L416.948 223H415.044L419.028 211.864H421.14L425.124 223H423.204L422.404 220.728ZM421.892 219.24L420.084 214.072L418.26 219.24H421.892ZM430.088 214.04C430.771 214.04 431.374 214.179 431.896 214.456C432.43 214.723 432.846 215.059 433.144 215.464V214.184H434.984V223.144C434.984 223.955 434.814 224.675 434.472 225.304C434.131 225.944 433.635 226.445 432.984 226.808C432.344 227.171 431.576 227.352 430.68 227.352C429.486 227.352 428.494 227.069 427.704 226.504C426.915 225.949 426.467 225.192 426.36 224.232H428.168C428.307 224.691 428.6 225.059 429.048 225.336C429.507 225.624 430.051 225.768 430.68 225.768C431.416 225.768 432.008 225.544 432.456 225.096C432.915 224.648 433.144 223.997 433.144 223.144V221.672C432.835 222.088 432.414 222.44 431.88 222.728C431.358 223.005 430.76 223.144 430.088 223.144C429.32 223.144 428.616 222.952 427.976 222.568C427.347 222.173 426.846 221.629 426.472 220.936C426.11 220.232 425.928 219.437 425.928 218.552C425.928 217.667 426.11 216.883 426.472 216.2C426.846 215.517 427.347 214.989 427.976 214.616C428.616 214.232 429.32 214.04 430.088 214.04ZM433.144 218.584C433.144 217.976 433.016 217.448 432.76 217C432.515 216.552 432.19 216.211 431.784 215.976C431.379 215.741 430.942 215.624 430.472 215.624C430.003 215.624 429.566 215.741 429.16 215.976C428.755 216.2 428.424 216.536 428.168 216.984C427.923 217.421 427.8 217.944 427.8 218.552C427.8 219.16 427.923 219.693 428.168 220.152C428.424 220.611 428.755 220.963 429.16 221.208C429.576 221.443 430.014 221.56 430.472 221.56C430.942 221.56 431.379 221.443 431.784 221.208C432.19 220.973 432.515 220.632 432.76 220.184C433.016 219.725 433.144 219.192 433.144 218.584ZM440.884 223.144C440.052 223.144 439.3 222.957 438.628 222.584C437.956 222.2 437.428 221.667 437.044 220.984C436.66 220.291 436.468 219.491 436.468 218.584C436.468 217.688 436.665 216.893 437.06 216.2C437.455 215.507 437.993 214.973 438.676 214.6C439.359 214.227 440.121 214.04 440.964 214.04C441.807 214.04 442.569 214.227 443.252 214.6C443.935 214.973 444.473 215.507 444.868 216.2C445.263 216.893 445.46 217.688 445.46 218.584C445.46 219.48 445.257 220.275 444.852 220.968C444.447 221.661 443.892 222.2 443.188 222.584C442.495 222.957 441.727 223.144 440.884 223.144ZM440.884 221.56C441.353 221.56 441.791 221.448 442.196 221.224C442.612 221 442.948 220.664 443.204 220.216C443.46 219.768 443.588 219.224 443.588 218.584C443.588 217.944 443.465 217.405 443.22 216.968C442.975 216.52 442.649 216.184 442.244 215.96C441.839 215.736 441.401 215.624 440.932 215.624C440.463 215.624 440.025 215.736 439.62 215.96C439.225 216.184 438.911 216.52 438.676 216.968C438.441 217.405 438.324 217.944 438.324 218.584C438.324 219.533 438.564 220.269 439.044 220.792C439.535 221.304 440.148 221.56 440.884 221.56Z" fill="#6A6969"/>
<rect x="461.25" y="76" width="42" height="117" rx="6" fill="#9E6EFE" fill-opacity="0.24"/>
<path d="M474.614 223.112C473.867 223.112 473.195 222.984 472.598 222.728C472.001 222.461 471.531 222.088 471.19 221.608C470.849 221.128 470.678 220.568 470.678 219.928H472.63C472.673 220.408 472.859 220.803 473.19 221.112C473.531 221.421 474.006 221.576 474.614 221.576C475.243 221.576 475.734 221.427 476.086 221.128C476.438 220.819 476.614 220.424 476.614 219.944C476.614 219.571 476.502 219.267 476.278 219.032C476.065 218.797 475.793 218.616 475.462 218.488C475.142 218.36 474.694 218.221 474.118 218.072C473.393 217.88 472.801 217.688 472.342 217.496C471.894 217.293 471.51 216.984 471.19 216.568C470.87 216.152 470.71 215.597 470.71 214.904C470.71 214.264 470.87 213.704 471.19 213.224C471.51 212.744 471.958 212.376 472.534 212.12C473.11 211.864 473.777 211.736 474.534 211.736C475.611 211.736 476.491 212.008 477.174 212.552C477.867 213.085 478.251 213.821 478.326 214.76H476.31C476.278 214.355 476.086 214.008 475.734 213.72C475.382 213.432 474.918 213.288 474.342 213.288C473.819 213.288 473.393 213.421 473.062 213.688C472.731 213.955 472.566 214.339 472.566 214.84C472.566 215.181 472.667 215.464 472.87 215.688C473.083 215.901 473.35 216.072 473.67 216.2C473.99 216.328 474.427 216.467 474.982 216.616C475.718 216.819 476.315 217.021 476.774 217.224C477.243 217.427 477.638 217.741 477.958 218.168C478.289 218.584 478.454 219.144 478.454 219.848C478.454 220.413 478.299 220.947 477.99 221.448C477.691 221.949 477.249 222.355 476.662 222.664C476.086 222.963 475.403 223.112 474.614 223.112ZM488.366 218.376C488.366 218.707 488.345 219.005 488.302 219.272H481.566C481.62 219.976 481.881 220.541 482.35 220.968C482.82 221.395 483.396 221.608 484.078 221.608C485.06 221.608 485.753 221.197 486.158 220.376H488.126C487.86 221.187 487.374 221.853 486.67 222.376C485.977 222.888 485.113 223.144 484.078 223.144C483.236 223.144 482.478 222.957 481.806 222.584C481.145 222.2 480.622 221.667 480.238 220.984C479.865 220.291 479.678 219.491 479.678 218.584C479.678 217.677 479.86 216.883 480.222 216.2C480.596 215.507 481.113 214.973 481.774 214.6C482.446 214.227 483.214 214.04 484.078 214.04C484.91 214.04 485.652 214.221 486.302 214.584C486.953 214.947 487.46 215.459 487.822 216.12C488.185 216.771 488.366 217.523 488.366 218.376ZM486.462 217.8C486.452 217.128 486.212 216.589 485.742 216.184C485.273 215.779 484.692 215.576 483.998 215.576C483.369 215.576 482.83 215.779 482.382 216.184C481.934 216.579 481.668 217.117 481.582 217.8H486.462ZM491.969 215.672V220.552C491.969 220.883 492.044 221.123 492.193 221.272C492.353 221.411 492.62 221.48 492.993 221.48H494.113V223H492.673C491.852 223 491.223 222.808 490.785 222.424C490.348 222.04 490.129 221.416 490.129 220.552V215.672H489.089V214.184H490.129V211.992H491.969V214.184H494.113V215.672H491.969Z" fill="#6A6969"/>
<rect x="518" y="45" width="42" height="148" rx="6" fill="#9E6EFE"/>
<path d="M530.772 223.112C529.737 223.112 528.783 222.872 527.908 222.392C527.044 221.901 526.356 221.224 525.844 220.36C525.343 219.485 525.092 218.504 525.092 217.416C525.092 216.328 525.343 215.352 525.844 214.488C526.356 213.624 527.044 212.952 527.908 212.472C528.783 211.981 529.737 211.736 530.772 211.736C531.817 211.736 532.772 211.981 533.636 212.472C534.511 212.952 535.199 213.624 535.7 214.488C536.201 215.352 536.452 216.328 536.452 217.416C536.452 218.504 536.201 219.485 535.7 220.36C535.199 221.224 534.511 221.901 533.636 222.392C532.772 222.872 531.817 223.112 530.772 223.112ZM530.772 221.528C531.508 221.528 532.164 221.363 532.74 221.032C533.316 220.691 533.764 220.211 534.084 219.592C534.415 218.963 534.58 218.237 534.58 217.416C534.58 216.595 534.415 215.875 534.084 215.256C533.764 214.637 533.316 214.163 532.74 213.832C532.164 213.501 531.508 213.336 530.772 213.336C530.036 213.336 529.38 213.501 528.804 213.832C528.228 214.163 527.775 214.637 527.444 215.256C527.124 215.875 526.964 216.595 526.964 217.416C526.964 218.237 527.124 218.963 527.444 219.592C527.775 220.211 528.228 220.691 528.804 221.032C529.38 221.363 530.036 221.528 530.772 221.528ZM545.911 214.184V223H544.087V221.96C543.799 222.323 543.42 222.611 542.951 222.824C542.492 223.027 542.002 223.128 541.479 223.128C540.786 223.128 540.162 222.984 539.607 222.696C539.063 222.408 538.631 221.981 538.311 221.416C538.002 220.851 537.847 220.168 537.847 219.368V214.184H539.655V219.096C539.655 219.885 539.852 220.493 540.247 220.92C540.642 221.336 541.18 221.544 541.863 221.544C542.546 221.544 543.084 221.336 543.479 220.92C543.884 220.493 544.087 219.885 544.087 219.096V214.184H545.911ZM550.126 215.672V220.552C550.126 220.883 550.2 221.123 550.35 221.272C550.51 221.411 550.776 221.48 551.15 221.48H552.27V223H550.83C550.008 223 549.379 222.808 548.942 222.424C548.504 222.04 548.286 221.416 548.286 220.552V215.672H547.246V214.184H548.286V211.992H550.126V214.184H552.27V215.672H550.126Z" fill="#6A6969"/>
</svg>
